<?xml version="1.0" encoding="UTF-8" standalone="no"?>
<svg
   xmlns:dc="http://purl.org/dc/elements/1.1/"
   xmlns:cc="http://creativecommons.org/ns#"
   xmlns:rdf="http://www.w3.org/1999/02/22-rdf-syntax-ns#"
   xmlns:svg="http://www.w3.org/2000/svg"
   xmlns="http://www.w3.org/2000/svg"
   xmlns:sodipodi="http://sodipodi.sourceforge.net/DTD/sodipodi-0.dtd"
   xmlns:inkscape="http://www.inkscape.org/namespaces/inkscape"
   width="837"
   height="299.13913"
   viewBox="0 0 836.99999 299.13913"
   version="1.1"
   id="svg4899"
   sodipodi:docname="1506457082-blog-vault-list.svg"
   inkscape:version="0.92.2 5c3e80d, 2017-08-06">
  <metadata
     id="metadata4903">
    <rdf:RDF>
      <cc:Work
         rdf:about="">
        <dc:format>image/svg+xml</dc:format>
        <dc:type
           rdf:resource="http://purl.org/dc/dcmitype/StillImage" />
        <dc:title>Artboard</dc:title>
      </cc:Work>
    </rdf:RDF>
  </metadata>
  <sodipodi:namedview
     pagecolor="#ffffff"
     bordercolor="#666666"
     borderopacity="1"
     objecttolerance="10"
     gridtolerance="10"
     guidetolerance="10"
     inkscape:pageopacity="0"
     inkscape:pageshadow="2"
     inkscape:window-width="833"
     inkscape:window-height="710"
     id="namedview4901"
     showgrid="false"
     scale-x="1.1"
     fit-margin-top="0"
     fit-margin-left="0"
     fit-margin-right="0"
     fit-margin-bottom="0"
     inkscape:zoom="2.6971429"
     inkscape:cx="308.9322"
     inkscape:cy="38.095354"
     inkscape:window-x="88"
     inkscape:window-y="0"
     inkscape:window-maximized="0"
     inkscape:current-layer="svg4899" />
  <!-- Generator: Sketch 43.1 (39012) - http://www.bohemiancoding.com/sketch -->
  <title
     id="title4877">Artboard</title>
  <desc
     id="desc4879">Created with Sketch.</desc>
  <defs
     id="defs4881" />
  <g
     id="Page-1"
     style="fill:none;fill-rule:evenodd;stroke:none;stroke-width:1"
     transform="translate(246.33898,-25)">
    <g
       id="Artboard"
       style="fill:#000000;fill-rule:nonzero">
      <g
         id="blog-vault-list"
         transform="translate(74,25)">
        <path
           d="m 27.104348,232.87826 v -5.50435 h -5.034783 v 5.50435 H 19.46087 v -13.25217 h 2.608695 v 5.55652 h 5.06087 v -5.55652 h 2.608695 v 13.25217 z m 12.026087,0 h -2.034783 l -0.182609,-0.70435 c -0.893631,0.55113 -1.924015,0.84036 -2.973913,0.83479 -1.826086,0 -2.608695,-1.2 -2.608695,-2.84348 0,-1.64348 0.886956,-2.6087 2.895652,-2.6087 h 2.295652 v -0.9913 c 0,-1.06957 -0.313043,-1.43479 -1.904348,-1.43479 -0.92881,0.007 -1.854817,0.10283 -2.765217,0.28696 L 31.53913,223.5913 c 1.115536,-0.29306 2.264003,-0.4421 3.417392,-0.44347 3.130434,0 4.043478,1.06956 4.043478,3.44347 z m -2.608696,-3.6 h -1.852174 c -0.808695,0 -1.043478,0.2087 -1.043478,0.93913 0,0.73044 0.234783,0.96522 0.991304,0.96522 0.657062,-0.0101 1.301752,-0.18027 1.878261,-0.49565 z m 7.826087,3.8087 c -1.168156,-0.0166 -2.327857,-0.20106 -3.443478,-0.54783 l 0.33913,-1.82609 c 0.968991,0.2676 1.968696,0.40791 2.973913,0.41739 1.095652,0 1.278261,-0.23478 1.278261,-0.96521 0,-0.73044 0,-0.88696 -1.747826,-1.25218 -2.426087,-0.57391 -2.608696,-1.14782 -2.608696,-3 0,-1.85217 0.886957,-2.76521 3.730435,-2.76521 1.000754,0.003 1.998082,0.11715 2.973913,0.33913 l -0.234782,1.90434 c -0.904519,-0.16446 -1.820166,-0.26039 -2.739131,-0.28695 -1.095652,0 -1.278261,0.23478 -1.278261,0.83478 0,0.6 0,0.83478 1.408696,1.14783 2.791304,0.70434 3.052174,1.06956 3.052174,3.02608 0,1.95652 -0.678261,2.97392 -3.704348,2.97392 z m 11.426087,-0.2087 V 226.2 c 0,-0.52174 -0.234783,-0.75652 -0.808696,-0.75652 -0.913729,0.0981 -1.799703,0.37274 -2.608695,0.80869 v 6.62609 h -2.608696 v -13.43478 l 2.608696,0.36522 v 4.22608 c 1.140221,-0.55619 2.384359,-0.86722 3.652174,-0.91304 1.643478,0 2.243478,1.12174 2.243478,2.81739 v 6.93913 z m 4.591304,-10.90435 v -2.34782 h 2.608696 v 2.34782 z m 0,10.90435 v -9.54783 h 2.608696 v 9.57392 z m 4.486957,-9.46956 c 0,-2.4 1.46087,-3.78261 4.852174,-3.78261 1.247842,0.003 2.491055,0.15186 3.704348,0.44347 l -0.286957,2.13914 c -1.098556,-0.24634 -2.215243,-0.40337 -3.33913,-0.46957 -1.773913,0 -2.347826,0.6 -2.347826,1.98261 v 5.03478 c 0,1.38261 0.573913,1.98261 2.347826,1.98261 1.091423,0.007 2.181724,-0.0714 3.260869,-0.23478 l 0.286957,2.13913 c -1.213293,0.29161 -2.456506,0.44045 -3.704348,0.44348 -3.391304,0 -4.852174,-1.38261 -4.852174,-3.78261 z m 14.060869,9.67826 c -3.417391,0 -4.330434,-1.8 -4.330434,-3.75653 v -2.37391 c 0,-1.95652 0.913043,-3.75652 4.330434,-3.75652 3.417392,0 4.330435,1.8 4.330435,3.75652 v 2.42609 c 0,1.87826 -0.913043,3.70435 -4.330435,3.70435 z m 0,-7.82609 c -1.330434,0 -1.852173,0.57391 -1.852173,1.64348 v 2.60869 c 0,1.06957 0.521739,1.64348 1.852173,1.64348 1.330435,0 1.852174,-0.57391 1.852174,-1.64348 v -2.60869 c 0.104348,-1.17392 -0.521739,-1.74783 -1.852174,-1.74783 z m 11.347827,0.15652 c -0.902805,0.39522 -1.7748,0.85738 -2.608696,1.38261 v 6.15652 h -2.608696 v -9.62609 h 2.113044 L 87.313044,224.4 c 0.812567,-0.527 1.689258,-0.94782 2.608695,-1.25217 z m 9.96522,4.38261 c 0.13826,0.91382 -0.16006,1.83959 -0.805851,2.50076 -0.645791,0.66117 -1.564287,0.98118 -2.481109,0.86446 -0.876524,-0.0155 -1.749768,-0.11152 -2.608695,-0.28696 v 3.91304 l -2.608696,0.36522 v -13.82609 h 1.982609 l 0.234782,0.8087 c 0.921743,-0.65416 2.026281,-1.00104 3.156522,-0.9913 2.008696,0 3.078258,1.14782 3.078258,3.31304 z m -5.947829,1.06956 c 0.728924,0.15865 1.471551,0.24602 2.217391,0.26087 0.886957,0 1.252174,-0.41739 1.252174,-1.27826 v -3.46956 c 0,-0.78261 -0.313043,-1.22609 -1.226087,-1.22609 -0.81532,0.0274 -1.597149,0.33097 -2.217391,0.86087 z"
           id="Shape"
           inkscape:connector-curvature="0" />
        <polygon
           id="polygon4884"
           points="51.104348,298.33044 35.817391,298.33044 19.486957,243.54783 30.234783,243.54783 43.46087,289.12174 56.686957,243.54783 67.434783,243.54783 " />
        <path
           d="m 97.330435,298.22609 h -8.217391 l -0.730435,-2.6087 c -3.541934,2.29802 -7.673547,3.52119 -11.895652,3.52174 -7.304348,0 -10.434783,-5.0087 -10.434783,-11.89565 0,-8.13913 3.521739,-11.24348 11.660869,-11.24348 h 9.600001 v -4.2 c 0,-4.43478 -1.226088,-6 -7.643479,-6 -3.727296,0.0379 -7.441449,0.44862 -11.086956,1.22609 l -1.226087,-7.64348 c 4.470122,-1.23308 9.084682,-1.86473 13.721739,-1.87826 12.573913,0 16.252174,4.43478 16.252174,14.45217 z M 87.313044,283.12174 h -7.408696 c -3.286957,0 -4.2,0.91304 -4.2,3.93913 0,3.02609 0.913043,4.01739 4.017391,4.01739 2.655747,-0.034 5.259172,-0.74318 7.565218,-2.06087 z"
           id="path4886"
           inkscape:connector-curvature="0" />
        <path
           d="m 113.08696,258.26087 v 27.91304 c 0,2.13913 0.91304,3.2087 3.20869,3.2087 3.66816,-0.41333 7.21628,-1.5576 10.43479,-3.36522 v -27.75652 h 10.01739 v 39.9913 h -7.64348 l -0.99131,-3.46956 c -4.95835,2.51734 -10.38666,3.97436 -15.93913,4.27826 -6.65217,0 -9.02608,-4.66957 -9.02608,-11.81739 v -28.98261 z"
           id="path4888"
           inkscape:connector-curvature="0" />
        <polygon
           id="polygon4890"
           points="142.06957,298.22609 142.06957,241.90435 152.08696,240.52174 152.08696,298.25217 " />
        <path
           d="m 181.98261,297.3913 c -2.82676,0.99279 -5.7956,1.52137 -8.79131,1.56522 -7.30434,0 -11.00869,-3.44348 -11.00869,-10.5913 v -22.27826 h -6 v -7.82609 h 6 v -9.93913 l 9.9913,-1.4087 v 11.34783 h 10.25218 L 181.8,266.08696 h -9.62609 v 20.86956 c -0.12545,0.98137 0.21648,1.96479 0.92371,2.65664 0.70722,0.69185 1.69792,1.01209 2.67629,0.8651 1.6979,-0.0477 3.38205,-0.31965 5.0087,-0.8087 z"
           id="path4892"
           inkscape:connector-curvature="0" />
        <path
           d="M 0,0 100.61739,201.93913 201.93913,0 Z m 112.5913,40.53913 h 11.71305 V 52.173913 H 112.5913 Z M 89.269565,87.495652 H 77.556522 V 75.652174 h 11.713043 z m 0,-17.556522 H 77.556522 V 58.095652 h 11.713043 z m 0,-17.556521 H 77.556522 V 40.53913 H 89.269565 Z M 106.95652,104.92174 H 95.113044 V 93.208696 h 11.843476 z m 0,-17.556523 H 95.113044 V 75.652174 h 11.843476 z m 0,-17.556521 H 95.113044 V 58.095652 h 11.843476 z m 0,-17.634783 H 95.113044 V 40.53913 h 11.843476 z m 5.76522,5.843478 h 11.71304 V 69.730435 H 112.5913 Z m 0,29.269566 V 75.652174 h 11.71304 v 11.713043 z"
           id="path4894"
           inkscape:connector-curvature="0" />
      </g>
    </g>
  </g>
</svg>
